<svg width="400" height="400" viewBox="0 0 400 400" fill="none" xmlns="http://www.w3.org/2000/svg">
<rect width="400" height="400" fill="#F3F4F6"/>
<rect x="150" y="150" width="100" height="100" rx="8" fill="#D1D5DB"/>
<path d="M175 175H185V185H175V175Z" fill="#9CA3AF"/>
<path d="M200 175C208.284 175 215 181.716 215 190C215 198.284 208.284 205 200 205C191.716 205 185 198.284 185 190C185 181.716 191.716 175 200 175Z" fill="#9CA3AF"/>
<path d="M225 175H235V185H225V175Z" fill="#9CA3AF"/>
<path d="M175 200H185V210H175V200Z" fill="#9CA3AF"/>
<path d="M225 200H235V210H225V200Z" fill="#9CA3AF"/>
<path d="M175 225H185V235H175V225Z" fill="#9CA3AF"/>
<path d="M200 225H210V235H200V225Z" fill="#9CA3AF"/>
<path d="M225 225H235V235H225V225Z" fill="#9CA3AF"/>
<text x="200" y="280" text-anchor="middle" fill="#6B7280" font-family="Arial, sans-serif" font-size="14">No Image</text>
</svg>
